<svg height='300px' width='300px'  fill="#000000" xmlns="http://www.w3.org/2000/svg" viewBox="0 0 100 100" x="0px" y="0px"><title>Artboard 1</title><path d="M54.12,25.34A1,1,0,0,0,55.49,25a2.12,2.12,0,0,1,3.57-.08,1,1,0,1,0,1.66-1.12,4.12,4.12,0,0,0-6.93.16A1,1,0,0,0,54.12,25.34Z"></path><path d="M37.65,24a1,1,0,1,0,1.71,1,2.12,2.12,0,0,1,3.57-.08,1,1,0,1,0,1.66-1.12,4.12,4.12,0,0,0-6.94.16Z"></path><path d="M43.83,30.42a.5.5,0,0,0,.23.67,4.22,4.22,0,0,0,5.18-1.21,4.22,4.22,0,0,0,5.18,1.21.5.5,0,0,0-.44-.9,3.2,3.2,0,0,1-4.06-1.07l.73-.56c.27-.27.08-.55-.3-.55H48.13c-.38,0-.57.29-.3.55l.73.65A3.12,3.12,0,0,1,47,30.38a3.21,3.21,0,0,1-2.47-.17A.49.49,0,0,0,43.83,30.42Z"></path><path d="M57,28.78a.5.5,0,0,0,.48.38l.12,0,4-1a.5.5,0,0,0-.24-1l-4,1A.5.5,0,0,0,57,28.78Z"></path><path d="M57.5,30.5a.5.5,0,0,0,.5.5h4a.5.5,0,0,0,0-1H58A.5.5,0,0,0,57.5,30.5Z"></path><path d="M61.56,33.18l-4-1a.5.5,0,0,0-.24,1l4,1,.12,0a.5.5,0,0,0,.12-1Z"></path><path d="M37.32,28.15l4,1,.12,0a.5.5,0,0,0,.12-1l-4-1a.5.5,0,1,0-.24,1Z"></path><path d="M42,30H38a.5.5,0,0,0,0,1h4a.5.5,0,0,0,0-1Z"></path><path d="M41.32,32.18l-4,1a.5.5,0,0,0,.12,1l.12,0,4-1a.5.5,0,0,0-.24-1Z"></path><path d="M50.52,51c-9.43,0-17.1,6.89-17.1,15.35s7.67,15.35,17.1,15.35,17.1-6.89,17.1-15.35S59.95,51,50.52,51Zm0,28.71c-8.33,0-15.1-6-15.1-13.35S42.19,53,50.52,53s15.1,6,15.1,13.35S58.85,79.66,50.52,79.66Z"></path><path d="M76.78,74.38a27.94,27.94,0,0,0,2.86-12.64,32.34,32.34,0,0,0-1-8.1c2-2.49,3-9.73,3-21.58a54.17,54.17,0,0,0-1-10.87c-.09-4-3.75-7.23-8.24-7.23a8.69,8.69,0,0,0-6,2.33,33.43,33.43,0,0,0-1-6.37,1,1,0,0,0-1.12-.74l-.74.11a32.17,32.17,0,0,0-9.31,2.89l-1.12.54a17.15,17.15,0,0,0-3.57-.38,16.92,16.92,0,0,0-3.68.41l-1.17-.57A32.19,32.19,0,0,0,35.4,9.28l-.74-.11a1,1,0,0,0-1.12.74,34.56,34.56,0,0,0-.46,15.32,17,17,0,0,0-.53,4.14,17.14,17.14,0,0,0,1.36,6.38C27.8,36.63,22,41.43,19,48.26a23,23,0,0,0-2,9.94h0s0,.08,0,.13A8.3,8.3,0,0,0,21.67,66a27,27,0,0,0,2.49,8.38,8.62,8.62,0,0,0-6.25,8c0,4.69,4.27,8.51,9.52,8.51A9.66,9.66,0,0,0,36,86a32.91,32.91,0,0,0,14.44,3.11A32.87,32.87,0,0,0,64.85,86a9.66,9.66,0,0,0,8.59,4.86C78.69,90.84,83,87,83,82.33A8.61,8.61,0,0,0,76.78,74.38Zm1-23.39a33.59,33.59,0,0,0-12.23-16.2,15.93,15.93,0,0,0,1-5.59,16.7,16.7,0,0,0-.28-2.94,8.67,8.67,0,0,0,6.13,2.46,8.53,8.53,0,0,0,6.89-3.34,66.63,66.63,0,0,1,.31,6.67C79.64,42.41,78.79,48.31,77.79,51ZM69,16.84V19a1,1,0,0,0,2,0V16.1A7.15,7.15,0,0,1,72,16v3a1,1,0,0,0,2,0V16.13a6.89,6.89,0,0,1,1,.3V19a1,1,0,0,0,2,0V17.67a5,5,0,0,1,1.69,3.67c0,3-2.8,5.39-6.25,5.39s-6.25-2.42-6.25-5.39A5.24,5.24,0,0,1,69,16.84Zm-5.31-5.67a31.48,31.48,0,0,1,.82,8s0,0,0,.07a6.65,6.65,0,0,0-.3,1.41,17.06,17.06,0,0,0-8.31-7.12A29.92,29.92,0,0,1,63.69,11.17Zm.89,18a14.11,14.11,0,0,1-1,5.17,25.61,25.61,0,0,1-14.41,4.39,25.35,25.35,0,0,1-13.35-3.7h0A15,15,0,1,1,64.58,29.2ZM49.91,41.26A2.73,2.73,0,1,1,47.18,44,2.73,2.73,0,0,1,49.91,41.26Zm-14.64-30a30.16,30.16,0,0,1,7.79,2.34,17.11,17.11,0,0,0-8.5,7.73A32.61,32.61,0,0,1,35.27,11.29Zm-4,27.26a32,32,0,0,0-7.65,11.59,7,7,0,0,0-3.7,1.7,23.31,23.31,0,0,1,1-2.71A19.6,19.6,0,0,1,31.24,38.55ZM19,58.33c0-3.45,2.42-6.25,5.39-6.25A5,5,0,0,1,28.31,54H27a1,1,0,0,0,0,2h2.43a7,7,0,0,1,.27,1H27a1,1,0,0,0,0,2h2.79a7.08,7.08,0,0,1-.17,1H27a1,1,0,0,0,0,2h1.79a5.19,5.19,0,0,1-4.35,2.58C21.47,64.58,19,61.78,19,58.33ZM33,86.7V84a1,1,0,0,0-2,0v4s0,0,0,.06a8.24,8.24,0,0,1-2,.64V84a1,1,0,0,0-2,0v4.82a8.49,8.49,0,0,1-2.12-.37A1,1,0,0,0,25,88V84a1,1,0,0,0-2,0v3.58a6.27,6.27,0,0,1-3.09-5.24c0-3.59,3.37-6.51,7.52-6.51S35,78.75,35,82.33A6,6,0,0,1,33,86.7Zm17.47.38a30.87,30.87,0,0,1-13.72-3A7.63,7.63,0,0,0,37,82.33c0-4.69-4.27-8.51-9.52-8.51a10.63,10.63,0,0,0-1.23.08,24.61,24.61,0,0,1-2.41-7.36c.21,0,.42,0,.64,0,4.07,0,7.39-3.7,7.39-8.25,0-4.06-2.64-7.44-6.11-8.12A29.3,29.3,0,0,1,35.81,37.34a27.11,27.11,0,0,0,10.78,3.28A4.74,4.74,0,1,0,53,40.48a27.47,27.47,0,0,0,11.19-4.16A31.17,31.17,0,0,1,77.64,61.74a25.84,25.84,0,0,1-2.88,12.18,10.63,10.63,0,0,0-1.33-.09c-5.25,0-9.52,3.82-9.52,8.51a7.63,7.63,0,0,0,.21,1.78A30.84,30.84,0,0,1,50.47,87.07ZM79,86.7V84a1,1,0,0,0-2,0v4s0,0,0,.06a8.24,8.24,0,0,1-2,.64V84a1,1,0,0,0-2,0v4.82a8.49,8.49,0,0,1-2.12-.37A1,1,0,0,0,71,88V84a1,1,0,0,0-2,0v3.58a6.27,6.27,0,0,1-3.09-5.24c0-3.59,3.37-6.51,7.52-6.51S81,78.75,81,82.33A6,6,0,0,1,79,86.7Z"></path><path d="M54,61H47a1,1,0,0,0,0,2h7a1,1,0,0,0,0-2Z"></path><path d="M54,66H47a1,1,0,0,0,0,2h7a1,1,0,0,0,0-2Z"></path><path d="M54,71H47a1,1,0,0,0,0,2h7a1,1,0,0,0,0-2Z"></path></svg>